<?xml version="1.0" encoding="UTF-8"?>
<svg xmlns="http://www.w3.org/2000/svg" version="1.1" width="512px" height="512px" style="shape-rendering:geometricPrecision; text-rendering:geometricPrecision; image-rendering:optimizeQuality; fill-rule:evenodd; clip-rule:evenodd" xmlns:xlink="http://www.w3.org/1999/xlink">
<g><path style="opacity:0.999" fill="#fed158" d="M 253.5,-0.5 C 254.833,-0.5 256.167,-0.5 257.5,-0.5C 258.167,0.166667 258.833,0.833333 259.5,1.5C 277.298,24.924 280.298,50.2573 268.5,77.5C 260.167,77.5 251.833,77.5 243.5,77.5C 231.825,50.5266 234.492,25.1932 251.5,1.5C 252.167,0.833333 252.833,0.166667 253.5,-0.5 Z"/></g>
<g><path style="opacity:0.999" fill="#feb765" d="M 259.5,1.5 C 272.784,8.35617 281.617,19.0228 286,33.5C 290.631,47.9045 290.464,62.2379 285.5,76.5C 284.609,77.1098 283.609,77.4431 282.5,77.5C 277.833,77.5 273.167,77.5 268.5,77.5C 280.298,50.2573 277.298,24.924 259.5,1.5 Z"/></g>
<g><path style="opacity:1" fill="#ffeec6" d="M 251.5,1.5 C 234.492,25.1932 231.825,50.5266 243.5,77.5C 237.409,77.7886 231.409,77.4553 225.5,76.5C 217.24,49.2865 223.24,25.7865 243.5,6C 245.817,3.84314 248.484,2.34314 251.5,1.5 Z"/></g>
<g><path style="opacity:1" fill="#dadada" d="M 203.5,432.5 C 213.203,329.307 223.203,226.14 233.5,123C 233.109,119.823 231.943,116.99 230,114.5C 227.02,112.465 223.853,110.798 220.5,109.5C 215.437,99.2979 210.771,88.9646 206.5,78.5C 207.189,77.2264 208.023,77.2264 209,78.5C 213.588,86.6761 217.922,95.0094 222,103.5C 227.941,104.475 232.941,107.141 237,111.5C 238.923,114.544 239.756,117.877 239.5,121.5C 231.527,225.48 223.861,329.48 216.5,433.5C 211.968,433.818 207.634,433.485 203.5,432.5 Z"/></g>
<g><path style="opacity:0.996" fill="#c0c0c0" d="M 225.5,76.5 C 231.409,77.4553 237.409,77.7886 243.5,77.5C 251.833,77.5 260.167,77.5 268.5,77.5C 273.167,77.5 277.833,77.5 282.5,77.5C 279.513,85.4789 276.513,93.4789 273.5,101.5C 264.447,102.434 258.281,107.101 255,115.5C 256.55,221.498 258.383,327.498 260.5,433.5C 276.342,433.83 292.009,433.496 307.5,432.5C 312.167,432.5 316.833,432.5 321.5,432.5C 321.5,439.5 321.5,446.5 321.5,453.5C 301.273,454.534 284.106,462.201 270,476.5C 262.627,486.99 259.46,498.657 260.5,511.5C 236.5,511.5 212.5,511.5 188.5,511.5C 183.32,498.14 176.82,485.474 169,473.5C 162.813,466.322 154.98,462.155 145.5,461C 132.53,459.763 119.53,459.263 106.5,459.5C 106.5,450.5 106.5,441.5 106.5,432.5C 138.833,432.5 171.167,432.5 203.5,432.5C 207.634,433.485 211.968,433.818 216.5,433.5C 223.861,329.48 231.527,225.48 239.5,121.5C 239.756,117.877 238.923,114.544 237,111.5C 232.941,107.141 227.941,104.475 222,103.5C 217.922,95.0094 213.588,86.6761 209,78.5C 208.023,77.2264 207.189,77.2264 206.5,78.5C 205.957,78.44 205.624,78.1067 205.5,77.5C 212.134,76.5033 218.8,76.17 225.5,76.5 Z"/></g>
<g><path style="opacity:1" fill="#9b9b9b" d="M 285.5,76.5 C 292.167,76.5 298.833,76.5 305.5,76.5C 301.09,87.7158 296.09,98.7158 290.5,109.5C 287.147,110.798 283.98,112.465 281,114.5C 279.057,116.99 277.891,119.823 277.5,123C 287.797,226.14 297.797,329.307 307.5,432.5C 292.009,433.496 276.342,433.83 260.5,433.5C 258.383,327.498 256.55,221.498 255,115.5C 258.281,107.101 264.447,102.434 273.5,101.5C 276.513,93.4789 279.513,85.4789 282.5,77.5C 283.609,77.4431 284.609,77.1098 285.5,76.5 Z"/></g>
<g><path style="opacity:1" fill="#9b9b9b" d="M 321.5,432.5 C 349.167,432.5 376.833,432.5 404.5,432.5C 404.5,443.167 404.5,453.833 404.5,464.5C 396.167,464.5 387.833,464.5 379.5,464.5C 360.974,462.367 343.641,466.201 327.5,476C 316.575,485.262 311.575,497.096 312.5,511.5C 295.167,511.5 277.833,511.5 260.5,511.5C 259.46,498.657 262.627,486.99 270,476.5C 284.106,462.201 301.273,454.534 321.5,453.5C 321.5,446.5 321.5,439.5 321.5,432.5 Z"/></g>
<g><path style="opacity:1" fill="#d9d9d9" d="M 106.5,459.5 C 119.53,459.263 132.53,459.763 145.5,461C 154.98,462.155 162.813,466.322 169,473.5C 176.82,485.474 183.32,498.14 188.5,511.5C 183.167,511.5 177.833,511.5 172.5,511.5C 171.059,488.445 159.392,473.278 137.5,466C 127.223,464.63 116.889,464.13 106.5,464.5C 106.5,462.833 106.5,461.167 106.5,459.5 Z"/></g>
<g><path style="opacity:1" fill="#838383" d="M 379.5,464.5 C 354.079,469.92 340.413,485.587 338.5,511.5C 329.833,511.5 321.167,511.5 312.5,511.5C 311.575,497.096 316.575,485.262 327.5,476C 343.641,466.201 360.974,462.367 379.5,464.5 Z"/></g>
</svg>
