<?xml version="1.0" encoding="UTF-8"?>
<svg width="752pt" height="752pt" version="1.1" viewBox="0 0 752 752" xmlns="http://www.w3.org/2000/svg">
 <g>
  <path d="m372.18 404.19c-3.793 18.738 5.4531 37.484 22.188 45.809v102.02c0 7.3984 6.0156 13.414 13.41 13.414h121.28c7.3945 0 13.41-6.0156 13.41-13.41l0.003906-102.05c16.699-8.3438 25.922-27.086 22.121-45.801-2.582-12.723-10.863-23.086-22.121-28.59v-17.996c16.699-8.3438 25.922-27.086 22.121-45.801-2.5781-12.723-10.859-23.086-22.121-28.59v-17.953c16.699-8.3438 25.922-27.086 22.121-45.801-3.3594-16.562-16.324-29.203-33.031-32.207-7.9922-1.4297-16.09-0.60156-23.426 2.4258-13.535 5.582-26.711 8.4141-39.16 8.4141h-1.1797c-12.445 0-25.621-2.832-39.16-8.4141-7.332-3.0234-15.434-3.8594-23.426-2.4258-16.711 3.0078-29.68 15.656-33.031 32.227-3.793 18.738 5.4531 37.484 22.188 45.809v17.898c-11.297 5.5-19.605 15.879-22.188 28.637-3.793 18.738 5.4531 37.484 22.188 45.809v17.945c-11.297 5.4961-19.605 15.879-22.188 28.633zm183.13 1.8633c3.1602 15.574-4.7969 30.574-19.355 36.477-1.7891 0.72266-2.957 2.4609-2.957 4.3906v105.11c0 2.168-1.7656 3.9336-3.9414 3.9336h-121.28c-2.1719 0-3.9414-1.7656-3.9414-3.9414l0.003906-105.08c0-1.9297-1.1719-3.668-2.9648-4.3906-14.586-5.8867-22.57-20.887-19.414-36.48 2.582-12.738 12.562-22.469 25.426-24.781 1.9844-0.35937 3.9727-0.53516 5.9453-0.53516 4.207 0 8.3438 0.80469 12.191 2.3906 14.691 6.0586 29.082 9.1289 42.773 9.1289h1.1797c13.691 0 28.082-3.0703 42.77-9.1289 5.6602-2.332 11.926-2.9766 18.137-1.8555 12.867 2.3125 22.848 12.031 25.43 24.766zm-154.44-148.23c-14.586-5.8867-22.57-20.887-19.414-36.48 2.582-12.738 12.562-22.469 25.426-24.781 6.2109-1.1289 12.48-0.47266 18.137 1.8555 14.691 6.0586 29.082 9.1289 42.773 9.1289h1.1797c13.691 0 28.082-3.0703 42.77-9.1289 5.6602-2.332 11.926-2.9844 18.137-1.8555 12.863 2.3125 22.844 12.035 25.426 24.766 3.1602 15.574-4.7969 30.574-19.355 36.477-1.7891 0.72266-2.957 2.4609-2.957 4.3906v17.758c-0.48828-0.10547-0.94141-0.28125-1.4375-0.37109-7.9922-1.4336-16.09-0.59766-23.426 2.4258-13.535 5.582-26.711 8.4141-39.16 8.4141h-1.1797c-12.445 0-25.621-2.832-39.16-8.4141-7.332-3.0234-15.434-3.8555-23.426-2.4258-0.47266 0.085937-0.90625 0.25391-1.375 0.35547l0.007812-17.723c0-1.9297-1.1719-3.6719-2.9648-4.3906zm0 92.344c-14.586-5.8867-22.57-20.887-19.414-36.48 2.582-12.738 12.562-22.469 25.426-24.781 6.2148-1.125 12.484-0.48047 18.141 1.8555 14.691 6.0586 29.082 9.1289 42.773 9.1289h1.1797c13.691 0 28.082-3.0703 42.77-9.1289 5.6602-2.332 11.926-2.9766 18.137-1.8555 12.863 2.3125 22.844 12.035 25.426 24.766 3.1602 15.574-4.7969 30.574-19.355 36.477-1.7891 0.72266-2.957 2.4609-2.957 4.3906v17.805c-0.48828-0.10547-0.94141-0.28125-1.4375-0.37109-7.9922-1.4375-16.09-0.59766-23.426 2.4258-13.535 5.582-26.711 8.4141-39.16 8.4141h-1.1797c-12.445 0-25.621-2.832-39.16-8.4141-7.332-3.0234-15.434-3.8633-23.426-2.4258-0.47266 0.085938-0.90625 0.25391-1.375 0.35547v-17.766c0.003906-1.9375-1.168-3.6758-2.9609-4.3945z"/>
  <path d="m475.49 482.2-8.8281 8.832c-1.8516 1.8516-1.8516 4.8477 0 6.6953 0.92578 0.92578 2.1367 1.3867 3.3477 1.3867 1.2109 0 2.4219-0.46094 3.3477-1.3867l8.8281-8.832c1.8516-1.8516 1.8516-4.8477 0-6.6953-1.8516-1.8477-4.8477-1.8477-6.6953 0z"/>
  <path d="m423.93 441.88c0.92578 0.92578 2.1367 1.3867 3.3477 1.3867 1.2109 0 2.4219-0.46094 3.3477-1.3867l8.8281-8.832c1.8516-1.8516 1.8516-4.8477 0-6.6953-1.8516-1.8516-4.8477-1.8516-6.6953 0l-8.8281 8.832c-1.8477 1.8477-1.8477 4.8477 0 6.6953z"/>
  <path d="m493.8 423.09c1.2109 0 2.4219-0.46094 3.3477-1.3867l8.8281-8.8281c1.8516-1.8516 1.8516-4.8477 0-6.6953-1.8516-1.8516-4.8477-1.8516-6.6953 0l-8.8281 8.8281c-1.8516 1.8516-1.8516 4.8477 0 6.6953 0.92188 0.92578 2.1328 1.3867 3.3477 1.3867z"/>
  <path d="m459.89 421.32c0.92578 0.92578 2.1367 1.3867 3.3477 1.3867s2.4219-0.46094 3.3477-1.3867c1.8516-1.8516 1.8516-4.8477 0-6.6953l-8.0742-8.0703c-1.8516-1.8516-4.8477-1.8516-6.6953 0-1.8516 1.8516-1.8516 4.8477 0 6.6953z"/>
  <path d="m504.52 474.12c-1.8516-1.8516-4.8477-1.8516-6.6953 0-1.8516 1.8516-1.8516 4.8477 0 6.6953l8.0742 8.0703c0.92578 0.92578 2.1367 1.3867 3.3477 1.3867 1.2109 0 2.4219-0.46094 3.3477-1.3867 1.8516-1.8516 1.8516-4.8477 0-6.6953z"/>
  <path d="m431.01 502.02c-1.8516-1.8516-4.8477-1.8516-6.6953 0-1.8516 1.8477-1.8516 4.8477 0 6.6953l8.0703 8.0742c0.92578 0.92578 2.1367 1.3867 3.3477 1.3867 1.2109 0 2.4219-0.46094 3.3477-1.3867 1.8516-1.8477 1.8516-4.8477 0-6.6953z"/>
  <path d="m463.24 466.41c1.2109 0 2.4219-0.46094 3.3477-1.3867 1.8516-1.8516 1.8516-4.8477 0-6.6953l-8.0742-8.0742c-1.8516-1.8516-4.8477-1.8516-6.6953 0-1.8516 1.8516-1.8516 4.8477 0 6.6953l8.0742 8.0742c0.92188 0.92578 2.1328 1.3867 3.3477 1.3867z"/>
  <path d="m461.01 348.83c-1.8516 1.8516-1.8516 4.8477 0 6.6953l8.0703 8.0703c0.92578 0.92578 2.1367 1.3867 3.3477 1.3867 1.2109 0 2.4219-0.46094 3.3477-1.3867 1.8516-1.8516 1.8516-4.8477 0-6.6953l-8.0703-8.0703c-1.8516-1.8516-4.8477-1.8516-6.6953 0z"/>
  <path d="m527.44 408.33v11.414c0 2.6172 2.1211 4.7344 4.7344 4.7344 2.6172 0 4.7344-2.1211 4.7344-4.7344v-11.414c0-2.6172-2.1211-4.7344-4.7344-4.7344-2.6133-0.003906-4.7344 2.1172-4.7344 4.7344z"/>
  <path d="m507.37 514.05c-2.6172 0-4.7344 2.1211-4.7344 4.7344v11.414c0 2.6172 2.1211 4.7344 4.7344 4.7344 2.6172 0 4.7344-2.1211 4.7344-4.7344v-11.414c0-2.6133-2.1172-4.7344-4.7344-4.7344z"/>
  <path d="m437.4 472.88h-11.414c-2.6172 0-4.7344 2.1211-4.7344 4.7344 0 2.6172 2.1211 4.7344 4.7344 4.7344h11.414c2.6172 0 4.7344-2.1211 4.7344-4.7344 0-2.6133-2.1211-4.7344-4.7344-4.7344z"/>
  <path d="m425.43 409.9c0-2.6172-2.1211-4.7344-4.7344-4.7344h-11.414c-2.6172 0-4.7344 2.1211-4.7344 4.7344 0 2.6172 2.1211 4.7344 4.7344 4.7344h11.414c2.6172 0 4.7344-2.1211 4.7344-4.7344z"/>
  <path d="m423.93 352.51c0.92578 0.92578 2.1367 1.3867 3.3477 1.3867 1.2109 0 2.4219-0.46094 3.3477-1.3867l8.8281-8.8281c1.8516-1.8516 1.8516-4.8477 0-6.6953-1.8516-1.8516-4.8477-1.8516-6.6953 0l-8.8281 8.8281c-1.8477 1.8477-1.8477 4.8438 0 6.6953z"/>
  <path d="m493.8 333.71c1.2109 0 2.4219-0.46094 3.3477-1.3867l8.8281-8.8281c1.8516-1.8516 1.8516-4.8477 0-6.6953-1.8516-1.8516-4.8477-1.8516-6.6953 0l-8.8281 8.8281c-1.8516 1.8516-1.8516 4.8477 0 6.6953 0.92188 0.92578 2.1328 1.3867 3.3477 1.3867z"/>
  <path d="m459.89 331.95c0.92578 0.92578 2.1367 1.3867 3.3477 1.3867s2.4219-0.46094 3.3477-1.3867c1.8516-1.8516 1.8516-4.8477 0-6.6953l-8.0742-8.0703c-1.8516-1.8516-4.8477-1.8516-6.6953 0-1.8516 1.8516-1.8516 4.8477 0 6.6953z"/>
  <path d="m532.18 335.1c2.6172 0 4.7344-2.1211 4.7344-4.7344v-11.414c0-2.6172-2.1211-4.7344-4.7344-4.7344-2.6172 0-4.7344 2.1211-4.7344 4.7344v11.414c-0.003906 2.6133 2.1172 4.7344 4.7344 4.7344z"/>
  <path d="m409.28 325.26h11.414c2.6172 0 4.7344-2.1211 4.7344-4.7344 0-2.6172-2.1211-4.7344-4.7344-4.7344h-11.414c-2.6172 0-4.7344 2.1211-4.7344 4.7344 0 2.6133 2.1211 4.7344 4.7344 4.7344z"/>
  <path d="m509.95 449.27c0-2.6172-2.1211-4.7344-4.7344-4.7344h-11.414c-2.6172 0-4.7344 2.1211-4.7344 4.7344 0 2.6172 2.1211 4.7344 4.7344 4.7344h11.414c2.6133 0 4.7344-2.1172 4.7344-4.7344z"/>
  <path d="m496.93 355.58c0 2.6172 2.1211 4.7344 4.7344 4.7344h11.414c2.6172 0 4.7344-2.1211 4.7344-4.7344 0-2.6172-2.1211-4.7344-4.7344-4.7344h-11.414c-2.6133 0-4.7344 2.1211-4.7344 4.7344z"/>
  <path d="m461.01 254.02c-1.8516 1.8477-1.8516 4.8477 0 6.6953l8.0703 8.0742c0.92578 0.92578 2.1367 1.3867 3.3477 1.3867 1.2109 0 2.4219-0.46094 3.3477-1.3867 1.8516-1.8477 1.8516-4.8477 0-6.6953l-8.0703-8.0742c-1.8516-1.8516-4.8477-1.8516-6.6953 0z"/>
  <path d="m423.93 257.7c0.92578 0.92578 2.1367 1.3867 3.3477 1.3867 1.2109 0 2.4219-0.46094 3.3477-1.3867l8.8281-8.8281c1.8516-1.8516 1.8516-4.8477 0-6.6953-1.8516-1.8516-4.8477-1.8516-6.6953 0l-8.8281 8.8281c-1.8477 1.8516-1.8477 4.8477 0 6.6953z"/>
  <path d="m493.8 238.91c1.2109 0 2.4219-0.46094 3.3477-1.3867l8.8281-8.832c1.8516-1.8516 1.8516-4.8477 0-6.6953-1.8516-1.8516-4.8477-1.8516-6.6953 0l-8.8281 8.832c-1.8516 1.8516-1.8516 4.8477 0 6.6953 0.92188 0.92578 2.1328 1.3867 3.3477 1.3867z"/>
  <path d="m459.89 237.14c0.92578 0.92578 2.1367 1.3867 3.3477 1.3867s2.4219-0.46094 3.3477-1.3867c1.8516-1.8516 1.8516-4.8477 0-6.6953l-8.0742-8.0742c-1.8516-1.8516-4.8477-1.8516-6.6953 0-1.8516 1.8516-1.8516 4.8477 0 6.6953z"/>
  <path d="m532.18 240.3c2.6172 0 4.7344-2.1211 4.7344-4.7344v-11.414c0-2.6172-2.1211-4.7344-4.7344-4.7344-2.6172 0-4.7344 2.1211-4.7344 4.7344v11.414c-0.003906 2.6133 2.1172 4.7344 4.7344 4.7344z"/>
  <path d="m409.28 230.46h11.414c2.6172 0 4.7344-2.1211 4.7344-4.7344 0-2.6172-2.1211-4.7344-4.7344-4.7344h-11.414c-2.6172 0-4.7344 2.1211-4.7344 4.7344 0 2.6133 2.1211 4.7344 4.7344 4.7344z"/>
  <path d="m496.93 260.78c0 2.6172 2.1211 4.7344 4.7344 4.7344h11.414c2.6172 0 4.7344-2.1211 4.7344-4.7344 0-2.6172-2.1211-4.7344-4.7344-4.7344l-11.414-0.003907c-2.6133 0-4.7344 2.1211-4.7344 4.7383z"/>
  <path d="m470.62 524.85h-11.414c-2.6172 0-4.7344 2.1211-4.7344 4.7344 0 2.6172 2.1211 4.7344 4.7344 4.7344h11.414c2.6172 0 4.7344-2.1211 4.7344-4.7344 0-2.6133-2.1211-4.7344-4.7344-4.7344z"/>
  <path d="m275.05 565.43c48.789 0 88.48-39.691 88.48-88.48s-39.691-88.48-88.48-88.48c-48.789 0-88.48 39.691-88.48 88.48s39.691 88.48 88.48 88.48zm0-167.49c43.566 0 79.008 35.441 79.008 79.008s-35.441 79.008-79.008 79.008c-43.566 0-79.012-35.441-79.012-79.008s35.445-79.008 79.012-79.008z"/>
  <path d="m275.05 508.67c17.488 0 31.719-14.227 31.719-31.719 0-17.488-14.227-31.719-31.719-31.719-17.488 0-31.719 14.227-31.719 31.719 0.003907 17.492 14.23 31.719 31.719 31.719zm0-53.961c12.266 0 22.246 9.9805 22.246 22.246s-9.9805 22.246-22.246 22.246-22.246-9.9805-22.246-22.246 9.9805-22.246 22.246-22.246z"/>
  <path d="m275.05 363.51c48.789 0 88.48-39.691 88.48-88.48 0-48.793-39.691-88.484-88.48-88.484-48.789 0-88.48 39.691-88.48 88.484 0 48.789 39.691 88.48 88.48 88.48zm0-167.49c43.566 0 79.008 35.445 79.008 79.012s-35.441 79.012-79.008 79.012c-43.566-0.003906-79.012-35.449-79.012-79.012 0-43.566 35.445-79.012 79.012-79.012z"/>
  <path d="m275.05 306.74c17.488 0 31.719-14.227 31.719-31.719 0-17.488-14.227-31.719-31.719-31.719-17.488 0-31.719 14.227-31.719 31.719 0.003907 17.492 14.23 31.719 31.719 31.719zm0-53.961c12.266 0 22.246 9.9805 22.246 22.246s-9.9805 22.246-22.246 22.246-22.246-9.9805-22.246-22.246 9.9805-22.246 22.246-22.246z"/>
 </g>
</svg>
