<svg xmlns="http://www.w3.org/2000/svg" xmlns:xlink="http://www.w3.org/1999/xlink" data-name="Layer 1" preserveAspectRatio="xMidYMid meet" version="1.0" viewBox="-0.3 -0.3 380.7 208.5" zoomAndPan="magnify" style="fill: rgb(255, 255, 255);" role="img" aria-label="Abstract Minimalist Dots Shapes"><g id="__id2_sof784za9i"><path d="M7.81,3.91A3.91,3.91,0,1,1,3.91,0,3.91,3.91,0,0,1,7.81,3.91ZM45.27,0a3.91,3.91,0,1,0,3.9,3.91A3.91,3.91,0,0,0,45.27,0ZM86.62,0a3.91,3.91,0,1,0,3.91,3.91A3.91,3.91,0,0,0,86.62,0ZM128,0a3.91,3.91,0,1,0,3.91,3.91A3.91,3.91,0,0,0,128,0Zm41.36,0a3.91,3.91,0,1,0,3.91,3.91A3.91,3.91,0,0,0,169.34,0ZM210.7,0a3.91,3.91,0,1,0,3.9,3.91A3.91,3.91,0,0,0,210.7,0Zm41.36,0A3.91,3.91,0,1,0,256,3.91,3.91,3.91,0,0,0,252.06,0Zm41.35,0a3.91,3.91,0,1,0,3.91,3.91A3.91,3.91,0,0,0,293.41,0Zm41.36,0a3.91,3.91,0,1,0,3.91,3.91A3.91,3.91,0,0,0,334.77,0Zm41.36,7.81a3.91,3.91,0,1,0-3.91-3.9A3.91,3.91,0,0,0,376.13,7.81ZM3.91,40a3.91,3.91,0,1,0,3.9,3.91A3.91,3.91,0,0,0,3.91,40Zm41.36,0a3.91,3.91,0,1,0,3.9,3.91A3.91,3.91,0,0,0,45.27,40Zm41.35,0a3.91,3.91,0,1,0,3.91,3.91A3.91,3.91,0,0,0,86.62,40ZM128,40a3.91,3.91,0,1,0,3.91,3.91A3.91,3.91,0,0,0,128,40Zm41.36,0a3.91,3.91,0,1,0,3.91,3.91A3.91,3.91,0,0,0,169.34,40Zm41.36,0a3.91,3.91,0,1,0,3.9,3.91A3.91,3.91,0,0,0,210.7,40Zm41.36,0a3.91,3.91,0,1,0,3.9,3.91A3.91,3.91,0,0,0,252.06,40Zm41.35,0a3.91,3.91,0,1,0,3.91,3.91A3.91,3.91,0,0,0,293.41,40Zm41.36,0a3.91,3.91,0,1,0,3.91,3.91A3.91,3.91,0,0,0,334.77,40Zm41.36,0A3.91,3.91,0,1,0,380,43.93,3.91,3.91,0,0,0,376.13,40ZM3.91,80.05A3.91,3.91,0,1,0,7.81,84,3.91,3.91,0,0,0,3.91,80.05Zm41.36,0a3.91,3.91,0,1,0,3.9,3.9A3.91,3.91,0,0,0,45.27,80.05Zm41.35,0A3.91,3.91,0,1,0,90.53,84,3.91,3.91,0,0,0,86.62,80.05Zm41.36,0a3.91,3.91,0,1,0,3.91,3.9A3.91,3.91,0,0,0,128,80.05Zm41.36,0a3.91,3.91,0,1,0,3.91,3.9A3.91,3.91,0,0,0,169.34,80.05Zm41.36,0a3.91,3.91,0,1,0,3.9,3.9A3.91,3.91,0,0,0,210.7,80.05Zm41.36,0A3.91,3.91,0,1,0,256,84,3.91,3.91,0,0,0,252.06,80.05Zm41.35,0a3.91,3.91,0,1,0,3.91,3.9A3.91,3.91,0,0,0,293.41,80.05Zm41.36,0a3.91,3.91,0,1,0,3.91,3.9A3.91,3.91,0,0,0,334.77,80.05Zm41.36,0A3.91,3.91,0,1,0,380,84,3.91,3.91,0,0,0,376.13,80.05Zm-372.22,40A3.91,3.91,0,1,0,7.81,124,3.91,3.91,0,0,0,3.91,120.07Zm41.36,0a3.91,3.91,0,1,0,3.9,3.91A3.91,3.91,0,0,0,45.27,120.07Zm41.35,0A3.91,3.91,0,1,0,90.53,124,3.91,3.91,0,0,0,86.62,120.07Zm41.36,0a3.91,3.91,0,1,0,3.91,3.91A3.91,3.91,0,0,0,128,120.07Zm41.36,0a3.91,3.91,0,1,0,3.91,3.91A3.91,3.91,0,0,0,169.34,120.07Zm41.36,0a3.91,3.91,0,1,0,3.9,3.91A3.91,3.91,0,0,0,210.7,120.07Zm41.36,0A3.91,3.91,0,1,0,256,124,3.91,3.91,0,0,0,252.06,120.07Zm41.35,0a3.91,3.91,0,1,0,3.91,3.91A3.91,3.91,0,0,0,293.41,120.07Zm41.36,0a3.91,3.91,0,1,0,3.91,3.91A3.91,3.91,0,0,0,334.77,120.07Zm41.36,0A3.91,3.91,0,1,0,380,124,3.91,3.91,0,0,0,376.13,120.07ZM3.91,160.1a3.91,3.91,0,1,0,3.9,3.9A3.91,3.91,0,0,0,3.91,160.1Zm41.36,0a3.91,3.91,0,1,0,3.9,3.9A3.91,3.91,0,0,0,45.27,160.1Zm41.35,0a3.91,3.91,0,1,0,3.91,3.9A3.91,3.91,0,0,0,86.62,160.1Zm41.36,0a3.91,3.91,0,1,0,3.91,3.9A3.91,3.91,0,0,0,128,160.1Zm41.36,0a3.91,3.91,0,1,0,3.91,3.9A3.91,3.91,0,0,0,169.34,160.1Zm41.36,0a3.91,3.91,0,1,0,3.9,3.9A3.91,3.91,0,0,0,210.7,160.1Zm41.36,0A3.91,3.91,0,1,0,256,164,3.91,3.91,0,0,0,252.06,160.1Zm41.35,0a3.91,3.91,0,1,0,3.91,3.9A3.91,3.91,0,0,0,293.41,160.1Zm41.36,0a3.91,3.91,0,1,0,3.91,3.9A3.91,3.91,0,0,0,334.77,160.1Zm41.36,0A3.91,3.91,0,1,0,380,164,3.91,3.91,0,0,0,376.13,160.1Zm-372.22,40A3.91,3.91,0,1,0,7.81,204,3.91,3.91,0,0,0,3.91,200.12Zm41.36,0a3.91,3.91,0,1,0,3.9,3.91A3.91,3.91,0,0,0,45.27,200.12Zm41.35,0A3.91,3.91,0,1,0,90.53,204,3.91,3.91,0,0,0,86.62,200.12Zm41.36,0a3.91,3.91,0,1,0,3.91,3.91A3.91,3.91,0,0,0,128,200.12Zm41.36,0a3.91,3.91,0,1,0,3.91,3.91A3.91,3.91,0,0,0,169.34,200.12Zm41.36,0a3.91,3.91,0,1,0,3.9,3.91A3.91,3.91,0,0,0,210.7,200.12Zm41.36,0A3.91,3.91,0,1,0,256,204,3.91,3.91,0,0,0,252.06,200.12Zm41.35,0a3.91,3.91,0,1,0,3.91,3.91A3.91,3.91,0,0,0,293.41,200.12Zm41.36,0a3.91,3.91,0,1,0,3.91,3.91A3.91,3.91,0,0,0,334.77,200.12Zm41.36,0A3.91,3.91,0,1,0,380,204,3.91,3.91,0,0,0,376.13,200.12Z" style="fill: inherit;"></path></g></svg>