<svg xmlns="http://www.w3.org/2000/svg" xmlns:xlink="http://www.w3.org/1999/xlink" data-name="Layer 1" preserveAspectRatio="xMidYMid meet" version="1.0" viewBox="0.0 0.0 113.0 427.2" zoomAndPan="magnify" style="fill: rgb(255, 255, 255);" role="img" aria-label="Abstract Minimalist Lined Cross Shapes"><g id="__id4_szeek5g6fk"><path d="M78.5,191.59H113v44H78.5v34.53h-44V235.56H0v-44H34.53V157.06h44ZM113,34.53v44H78.5V113h-44V78.5H0v-44H34.53V0h44V34.53Zm-4,4H74.5V4h-36V38.53H4v36H38.53V109h36V74.5H109ZM78.5,348.66H113v44H78.5v34.53h-44V392.62H0v-44H34.53V314.12h44Zm-4,4V318.12h-36v34.54H4v36H38.53v34.53h36V388.62H109v-36Z" style="fill: inherit;"></path></g></svg>